<svg xmlns="http://www.w3.org/2000/svg" viewBox="0 0 160 120" fill="none">
    <!-- Wooden border (brown) -->
    <rect x="10" y="10" width="140" height="100" rx="6" fill="#4A2F1D"/>
    
    <!-- Felt surface (green) -->
    <rect x="20" y="20" width="120" height="80" rx="3" fill="#1B6E43"/>
    
    <!-- Corner pockets (black) -->
    <circle cx="15" cy="15" r="5" fill="#000000" opacity="0.9"/>
    <circle cx="145" cy="15" r="5" fill="#000000" opacity="0.9"/>
    <circle cx="15" cy="105" r="5" fill="#000000" opacity="0.9"/>
    <circle cx="145" cy="105" r="5" fill="#000000" opacity="0.9"/>
    
    <!-- Side pockets (black) -->
    <circle cx="80" cy="12" r="4" fill="#000000" opacity="0.9"/>
    <circle cx="80" cy="108" r="4" fill="#000000" opacity="0.9"/>
    
    <!-- Diamond sights (white) -->
    <circle cx="50" cy="20" r="1.5" fill="#FFFFFF" opacity="0.7"/>
    <circle cx="110" cy="20" r="1.5" fill="#FFFFFF" opacity="0.7"/>
    <circle cx="50" cy="100" r="1.5" fill="#FFFFFF" opacity="0.7"/>
    <circle cx="110" cy="100" r="1.5" fill="#FFFFFF" opacity="0.7"/>
    <circle cx="20" cy="45" r="1.5" fill="#FFFFFF" opacity="0.7"/>
    <circle cx="20" cy="75" r="1.5" fill="#FFFFFF" opacity="0.7"/>
    <circle cx="140" cy="45" r="1.5" fill="#FFFFFF" opacity="0.7"/>
    <circle cx="140" cy="75" r="1.5" fill="#FFFFFF" opacity="0.7"/>
    
    <!-- Table cushions (darker brown) -->
    <rect x="20" y="20" width="120" height="5" fill="#3A251B" opacity="0.8"/>
    <rect x="20" y="95" width="120" height="5" fill="#3A251B" opacity="0.8"/>
    <rect x="20" y="20" width="5" height="80" fill="#3A251B" opacity="0.8"/>
    <rect x="135" y="20" width="5" height="80" fill="#3A251B" opacity="0.8"/>
</svg>
